<svg width="30" height="30" viewBox="0 0 30 30" fill="none" xmlns="http://www.w3.org/2000/svg">
<path d="M7.85455 5.85L5.4 3.40909L3.47727 5.33182L5.91818 7.77273L7.85455 5.85ZM4.09091 13.5682H0V16.2955H4.09091V13.5682ZM16.3636 0H13.6364V4.02273H16.3636V0ZM26.5227 5.33182L24.6 3.40909L22.1591 5.85L24.0818 7.77273L26.5227 5.33182ZM22.1455 24.0136L24.5864 26.4682L26.5091 24.5455L24.0545 22.1045L22.1455 24.0136ZM25.9091 13.5682V16.2955H30V13.5682H25.9091ZM15 6.75C10.4864 6.75 6.81818 10.4182 6.81818 14.9318C6.81818 19.4455 10.4864 23.1136 15 23.1136C19.5136 23.1136 23.1818 19.4455 23.1818 14.9318C23.1818 10.4182 19.5136 6.75 15 6.75ZM13.6364 29.8636H16.3636V25.8409H13.6364V29.8636ZM3.47727 24.5318L5.4 26.4545L7.84091 24L5.91818 22.0773L3.47727 24.5318Z" fill="black"/>
</svg>
